<?xml version="1.0" encoding="UTF-8" standalone="no"?><!DOCTYPE svg PUBLIC "-//W3C//DTD SVG 1.1//EN" "http://www.w3.org/Graphics/SVG/1.1/DTD/svg11.dtd"><svg width="100%" height="100%" viewBox="0 0 512 512" version="1.1" xmlns="http://www.w3.org/2000/svg" xmlns:xlink="http://www.w3.org/1999/xlink" xml:space="preserve" xmlns:serif="http://www.serif.com/" style="fill-rule:evenodd;clip-rule:evenodd;stroke-linejoin:round;stroke-miterlimit:1.41421;"><g><path d="M246.208,181.563l-47.331,145.952l-44.201,0l-27.954,-88.818l-29.19,88.829l-44.202,0l-47.33,-145.963l42.538,0l29.399,93.206l30.908,-93.206l37.954,0l29.398,94.092l30.635,-94.092l39.376,0Z" style="fill-rule:nonzero;"/><path d="M360.978,254.857c6.463,7.439 9.694,16.44 9.694,27.002c0.036,8.499 -2.388,16.83 -6.981,23.982c-4.66,7.367 -11.75,13.308 -21.269,17.823c-9.518,4.515 -21.298,6.773 -35.339,6.773c-10.297,-0.002 -20.556,-1.262 -30.547,-3.753c-9.226,-2.153 -18.058,-5.742 -26.171,-10.635l15.011,-31.072c5.914,3.994 12.425,7.022 19.289,8.972c6.855,2.038 13.965,3.092 21.116,3.129c7.097,0 12.728,-1.321 16.893,-3.961c3.989,-2.316 6.397,-6.648 6.258,-11.258c0,-9.482 -7.436,-14.223 -22.308,-14.223l-17.254,0l0,-26.018l26.061,-28.151l-57.549,0l0,-31.904l105.503,0l0,25.854l-30.252,32.483c12.108,2.531 21.39,7.517 27.845,14.957Z" style="fill-rule:nonzero;"/><path d="M432.816,213.467l0,32.112l64.431,0l0,31.903l-64.431,0l0,50.044l-41.291,0l0,-145.963l114.475,0l0,31.904l-73.184,0Z" style="fill-rule:nonzero;"/></g></svg>